<svg id="visual" viewBox="0 0 900 600" width="900" height="600" xmlns="http://www.w3.org/2000/svg" xmlns:xlink="http://www.w3.org/1999/xlink" version="1.1"><path d="M818 600L818 480L818 360L809 240L827 120L818 0L900 0L900 120L900 240L900 360L900 480L900 600Z" fill="#00cc8e"></path><path d="M665 600L683 480L674 360L701 240L710 120L683 0L819 0L828 120L810 240L819 360L819 480L819 600Z" fill="#00c08c"></path><path d="M458 600L449 480L449 360L494 240L431 120L413 0L684 0L711 120L702 240L675 360L684 480L666 600Z" fill="#00b388"></path><path d="M215 600L224 480L260 360L269 240L251 120L233 0L414 0L432 120L495 240L450 360L450 480L459 600Z" fill="#00a784"></path><path d="M143 600L161 480L179 360L179 240L179 120L152 0L234 0L252 120L270 240L261 360L225 480L216 600Z" fill="#009b7f"></path><path d="M89 600L89 480L125 360L116 240L125 120L80 0L153 0L180 120L180 240L180 360L162 480L144 600Z" fill="#008f79"></path><path d="M0 600L0 480L0 360L0 240L0 120L0 0L81 0L126 120L117 240L126 360L90 480L90 600Z" fill="#038373"></path></svg>